<svg version="1.2" xmlns="http://www.w3.org/2000/svg" viewBox="0 0 90 50" width="90" height="50"><title>powered-by-wiply-svg</title>
<style>
		tspan { white-space:pre } 
		.t0 { font-size: 13px; fill: #ffffff;   font-family: 'Open Sans', -apple-system, BlinkMacSystemFont, 'Segoe UI', 'Roboto', 'Oxygen',
    'Ubuntu', 'Cantarell', 'Fira Sans', 'Droid Sans', 'Helvetica Neue',
    sans-serif;} 
		.s1 { fill: #ffffff } 
	</style><text id="Powered by   " style="transform: matrix(1, 0, 0, 1, 10, 10.96);"><tspan class="t0" x="0" y="0">Powered by
</tspan><tspan class="t0" x="0" y="15.6"></tspan></text><path class="s1" id="Layer" d="m71 34.3q0.5 0.2 0.8 0.6 0.4 0.4 0.6 0.8 0.2 0.5 0.2 1-0.1 0.6-0.3 1.1-0.3 0.5-0.7 0.8-0.4 0.4-1 0.5-0.5 0.2-1 0.2-1.3 0-2.5-0.6-1.1-0.5-2-1.3-0.9-0.9-1.4-2.1-0.5-1.1-0.6-2.4c0-4.2 0-8.5 0-12.7v-1.3q0-0.5 0.2-1.1 0.2-0.5 0.6-0.9 0.4-0.4 0.9-0.7 0.6-0.2 1.1-0.2 0.6 0 1.1 0.2 0.5 0.3 0.9 0.7 0.4 0.4 0.6 0.9 0.2 0.5 0.2 1.1c0 1.6 0 3.3 0 4.9q0 0.8 0 1.7v2.3q0 2.3 0 4.6c0 1.1 0.3 1.4 1.4 1.6q0.5 0 0.9 0.3z"></path><path class="s1" id="Layer" fill-rule="evenodd" d="m55.2 22c1.7 0.6 3.3 1.7 4.4 3.3 1.1 1.5 1.7 3.3 1.7 5.2-0.1 1.8-0.7 3.7-1.8 5.2q-0.8 1.1-2 1.9-1.2 0.9-2.5 1.3-1.4 0.4-2.8 0.4-1.5 0-2.8-0.5l-0.5-0.2c0 0.9 0 2.5 0 3.3q0 0.3 0 0.6-0.1 0.3-0.2 0.6-0.1 0.3-0.3 0.5-0.2 0.3-0.4 0.5-0.2 0.2-0.4 0.3-0.2 0.2-0.4 0.3-0.3 0.1-0.5 0.1-0.3 0.1-0.5 0.1h-0.1q-0.6-0.1-1.1-0.3-0.5-0.3-0.8-0.7-0.4-0.4-0.6-0.9-0.1-0.6-0.1-1.1 0-5.6 0-11.3 0-1.4 0.4-2.7 0.5-1.4 1.3-2.6 0.8-1.2 2-2 1.1-0.9 2.5-1.3c1.8-0.6 3.7-0.6 5.5 0zm-3 12q0.3 0 0.7-0.1 0.3 0 0.6-0.2 0.3-0.1 0.6-0.3 0.3-0.2 0.5-0.4 0.2-0.2 0.4-0.5 0.3-0.3 0.4-0.7 0.1-0.3 0.2-0.6 0.1-0.4 0.1-0.7 0-0.7-0.3-1.3-0.3-0.7-0.7-1.1-0.5-0.5-1.2-0.8-0.6-0.3-1.3-0.3-0.3 0-0.7 0.1-0.3 0.1-0.6 0.2-0.4 0.1-0.7 0.3-0.3 0.2-0.5 0.4-0.3 0.3-0.4 0.6-0.2 0.3-0.4 0.6-0.1 0.3-0.2 0.6 0 0.4 0 0.7 0 0.7 0.3 1.4 0.2 0.6 0.7 1.1 0.5 0.5 1.1 0.8 0.7 0.2 1.4 0.2z"></path><path class="s1" id="Layer" d="m89.7 24c0 5 0 10.2 0 15.8-0.1 2.8-0.1 0.8-0.1 3.3 0 3.3-2.8 6.6-6 6.6q-0.5 0-1-0.2-0.5-0.1-0.9-0.5-0.4-0.3-0.6-0.7-0.2-0.5-0.3-1 0-0.5 0.2-0.9 0.2-0.5 0.5-0.9 0.3-0.3 0.8-0.5 0.4-0.2 0.9-0.3c1.1-0.1 1.5-1 1.5-2.1 0-2.4 0.1-3.5 0.1-2.8v-0.4q0-0.5 0-1.1c-2.7 1.1-4.7 1.1-6.9 0-3.3-1.6-4.7-4.3-4.8-7.9-0.1-2.2 0-4.3 0-6.2q0-0.6 0.2-1.1 0.3-0.4 0.7-0.8 0.4-0.4 0.9-0.5 0.5-0.2 1-0.2 0.5 0 1 0.2 0.5 0.2 0.8 0.5 0.4 0.4 0.6 0.9 0.1 0.5 0.1 1 0 1.3 0 2.7 0 1.7 0 3.4c0 1.7 0 2.9 1.6 3.6q0.4 0.2 0.9 0.3 0.6 0.1 1.1 0.1 0.5-0.1 1-0.3 0.5-0.2 0.8-0.5 0.3-0.3 0.5-0.7 0.3-0.3 0.4-0.7 0.1-0.4 0.2-0.8 0-0.4-0.1-0.8v-5.9q0-0.1 0-0.2 0-0.1 0-0.2 0-0.1 0-0.2 0-0.1 0-0.2 0.1-0.5 0.3-0.9 0.2-0.4 0.6-0.7 0.3-0.3 0.8-0.5 0.4-0.1 0.9-0.1 0.5 0 0.9 0.2 0.4 0.2 0.8 0.5 0.3 0.4 0.5 0.8 0.1 0.4 0.1 0.9"></path><path class="s1" id="Layer" d="m41.5 23.7q0 0.1 0.1 0.2 0 0.2 0 0.3 0 0.2 0 0.3 0 2.2 0 4.3v3.5q0 2.1 0 4.2 0.1 0.5-0.1 1.1-0.2 0.5-0.6 0.9-0.3 0.4-0.8 0.7-0.5 0.2-1.1 0.2-0.3 0-0.5 0-0.3-0.1-0.5-0.2-0.2-0.1-0.4-0.2-0.3-0.1-0.4-0.3-0.2-0.2-0.4-0.5-0.2-0.2-0.3-0.5-0.1-0.3-0.2-0.6 0-0.3 0-0.6c0-3.9 0-7.9 0-12q0-0.2 0-0.3 0-0.1 0-0.3 0.1-0.1 0.1-0.2 0-0.2 0.1-0.3 0.2 0.2 0.5 0.4 0.3 0.2 0.6 0.3 0.4 0.2 0.7 0.2 0.4 0.1 0.7 0.1 0.3 0 0.7-0.1 0.3 0 0.6-0.2 0.3-0.1 0.6-0.3 0.3-0.2 0.5-0.4 0.1 0.1 0.1 0.3z"></path><path class="s1" id="Layer" d="m41.8 19.3q0.1 0.1 0.1 0.2 0 0.1 0.1 0.2 0 0.1 0 0.2 0 0.1 0 0.2 0 0.4-0.1 0.7-0.1 0.3-0.2 0.6-0.2 0.3-0.4 0.6-0.2 0.3-0.4 0.5-0.2 0.1-0.5 0.2-0.2 0.2-0.4 0.3-0.3 0-0.5 0.1-0.2 0-0.5 0-0.3 0-0.5 0-0.3 0-0.6-0.1-0.2-0.1-0.4-0.2-0.3-0.2-0.5-0.3-0.3-0.2-0.5-0.5-0.2-0.3-0.3-0.6-0.1-0.3-0.2-0.6-0.1-0.3-0.1-0.7 0-0.1 0.1-0.2 0-0.2 0-0.3 0-0.1 0-0.2 0.1-0.2 0.1-0.3 0.2-0.4 0.5-0.8 0.3-0.3 0.7-0.6 0.3-0.3 0.8-0.4 0.4-0.2 0.9-0.2 0.5 0 0.9 0.2 0.5 0.2 0.8 0.4 0.4 0.3 0.7 0.7 0.3 0.4 0.4 0.8"></path><path class="s1" id="Layer" d="m28.6 39.1q0-0.1-0.1-0.1 0-0.1-0.1-0.2-0.1-0.1-0.1-0.2-0.1 0-0.2-0.1-0.2-0.2-0.5-0.4-0.2-0.2-0.6-0.3-0.3-0.2-0.6-0.2-0.3-0.1-0.6-0.1-0.5 0-1 0.1-0.4 0.2-0.8 0.4-0.4 0.3-0.7 0.6-0.4 0.3-0.6 0.8 0-0.1 0-0.1-0.1-0.1-0.1-0.1 0 0 0-0.1 0 0-0.1-0.1l-2.5-6.4-2.5 6.2q0 0.1-0.1 0.1 0 0.1 0 0.1 0 0.1 0 0.1 0 0.1 0 0.1-0.1-0.1-0.1-0.2-0.1-0.1-0.2-0.2 0-0.1-0.1-0.1-0.1-0.1-0.2-0.2-0.2-0.2-0.5-0.4-0.2-0.2-0.6-0.3-0.3-0.2-0.6-0.2-0.3-0.1-0.6-0.1-0.5 0-1 0.1-0.4 0.2-0.9 0.4-0.4 0.3-0.7 0.6-0.3 0.4-0.5 0.8-0.1 0-0.1-0.1 0 0 0-0.1-0.1 0-0.1-0.1 0 0 0-0.1l-4.7-11.7h-3.1q-0.3 0.1-0.6 0-0.3 0-0.6-0.1-0.3-0.1-0.5-0.2-0.3-0.2-0.5-0.4-0.3-0.2-0.5-0.4-0.3-0.3-0.4-0.6-0.2-0.3-0.2-0.6-0.1-0.3-0.1-0.6 0-0.4 0.1-0.7 0-0.3 0.2-0.6 0.1-0.3 0.3-0.6 0.3-0.2 0.5-0.4 0.3-0.2 0.5-0.4 0.3-0.2 0.6-0.3 0.3-0.1 0.6-0.1 0.3 0 0.7 0l4.2-0.1q0.2 0 0.4 0 0.1 0 0.3 0 0.1 0.1 0.3 0.1 0.1 0 0.3 0 0.2 0 0.3 0 0.2 0.1 0.4 0.1 0.1 0 0.3 0.1 0.2 0 0.3 0.1 0.3 0.2 0.6 0.4 0.2 0.2 0.4 0.5 0.3 0.2 0.4 0.5 0.2 0.3 0.3 0.6l2.5 6.3 2.5-6.3q0-0.1 0.1-0.2 0-0.1 0.1-0.2 0-0.1 0.1-0.2 0-0.1 0.1-0.2 0-0.1 0.1-0.1 0-0.1 0-0.1 0.1-0.1 0.1-0.1 0-0.1 0.1-0.1l0.1-0.1v-0.1q0.1-0.1 0.2-0.2 0.1-0.1 0.2-0.1 0.1-0.1 0.2-0.2 0.1-0.1 0.2-0.1 0.5-0.2 0.9-0.3 0.5 0 1 0.1 0.4 0 0.8 0.3 0.4 0.2 0.8 0.5v0.1q0.1 0 0.1 0 0 0 0 0 0 0 0 0.1 0 0 0 0 0.1 0 0.1 0.1 0.1 0 0.1 0.1 0 0 0.1 0.1 0 0 0 0.1 0.1 0.1 0.1 0.2 0.1 0.1 0.2 0.2 0 0.1 0.1 0.2 0 0.1 0 0.2l2.7 6.7 2.6-6.7q0.1-0.3 0.3-0.6 0.1-0.3 0.3-0.6 0.3-0.2 0.5-0.4 0.3-0.2 0.6-0.4 0.3-0.1 0.6-0.2 0.3-0.1 0.6-0.1 0.3 0 0.6 0.1 0.3 0 0.6 0.2 0.3 0.1 0.5 0.2 0.3 0.2 0.5 0.4 0.2 0.2 0.4 0.5 0.2 0.3 0.3 0.5 0.1 0.4 0.1 0.7 0.1 0.3 0 0.7 0 0.3-0.1 0.6 0 0.3-0.2 0.6z"></path><path class="s1" id="Layer" d="m28.3 39.7q0.1 0.2 0.3 0.4 0.1 0.2 0.2 0.4 0 0.3 0.1 0.5 0 0.2 0 0.5 0 0.1 0 0.2 0 0.2 0 0.3 0 0.1-0.1 0.2 0 0.2 0 0.3-0.2 0.4-0.5 0.8-0.2 0.4-0.6 0.7-0.4 0.2-0.8 0.4-0.5 0.1-0.9 0.1-0.3 0-0.6 0-0.3-0.1-0.6-0.2-0.3-0.1-0.5-0.2-0.3-0.2-0.5-0.3-0.2-0.3-0.4-0.5-0.2-0.3-0.3-0.6-0.2-0.3-0.2-0.6-0.1-0.3-0.1-0.6 0-0.2 0-0.3 0.1-0.2 0.1-0.4 0.1-0.1 0.1-0.3 0.1-0.1 0.2-0.3 0.2-0.4 0.4-0.7 0.3-0.3 0.7-0.5 0.4-0.2 0.8-0.3 0.4-0.2 0.8-0.2 0.3 0 0.7 0.1 0.3 0.1 0.6 0.3 0.3 0.1 0.6 0.3 0.3 0.3 0.5 0.5"></path><path class="s1" id="Layer" d="m17.2 39.8q0.1 0.2 0.2 0.4 0.1 0.2 0.2 0.4 0 0.3 0.1 0.5 0 0.2 0 0.4 0 0.1 0 0.3 0 0.1 0 0.2-0.1 0.1-0.1 0.2 0 0.1 0 0.3-0.2 0.4-0.5 0.8-0.2 0.4-0.6 0.6-0.4 0.3-0.9 0.5-0.4 0.1-0.9 0.1-0.3 0-0.5 0-0.3-0.1-0.6-0.2-0.3-0.1-0.5-0.2-0.3-0.2-0.5-0.3-0.2-0.3-0.4-0.5-0.2-0.3-0.3-0.6-0.2-0.3-0.2-0.6-0.1-0.3-0.1-0.6 0-0.2 0-0.3 0-0.2 0.1-0.3 0-0.2 0.1-0.3 0-0.2 0.1-0.3 0.2-0.4 0.5-0.7 0.3-0.4 0.7-0.6 0.3-0.2 0.7-0.3 0.4-0.2 0.9-0.2 0.3 0 0.7 0.1 0.3 0.1 0.7 0.3 0.3 0.1 0.6 0.4 0.2 0.2 0.4 0.5"></path></svg>